<?xml version="1.0" encoding="utf-8"?>
<!-- Generator: Adobe Illustrator 16.0.0, SVG Export Plug-In . SVG Version: 6.00 Build 0)  -->
<!DOCTYPE svg PUBLIC "-//W3C//DTD SVG 1.1//EN" "http://www.w3.org/Graphics/SVG/1.1/DTD/svg11.dtd">
<svg version="1.1" id="Calque_1" xmlns="http://www.w3.org/2000/svg" xmlns:xlink="http://www.w3.org/1999/xlink" x="0px" y="0px"
	 width="141.73px" height="141.73px" viewBox="0 0 141.73 141.73" enable-background="new 0 0 141.73 141.73" xml:space="preserve">
<rect x="0" fill="none" width="141.731" height="141.73"/>
<path fill="none" stroke="#000000" stroke-width="0.5" stroke-miterlimit="10" d="M62.163,40.228L50.168,53.67l5.997-0.96
	l-9.34,16.131l6.095-1.344l-9.832,20.354l6.292-2.879c0,0-3.933,11.521-12.585,12.482c0,0,15.534,3.84,25.366-1.922
	c0,0,12.978,6.156,23.204,3.176c0,0-7.866-3.752-9.046-13.354l4.916,1.537l-9.439-19.396l5.31,0.96l-8.063-15.939h3.933
	L62.163,40.228z"/>
<path fill="none" stroke="#000000" stroke-width="0.5" stroke-miterlimit="10" d="M80.922,50.576c0,0-5.016-0.848-3.473-6.217
	C77.449,44.359,82.946,45.114,80.922,50.576z"/>
<line fill="#16B8EA" stroke="#000000" stroke-width="0.5" stroke-miterlimit="10" x1="80.922" y1="50.576" x2="78.51" y2="45.867"/>
<path fill="none" stroke="#000000" stroke-width="0.5" stroke-miterlimit="10" d="M81.543,50.288c0,0-3.93-3.159,0.131-7.08
	C81.674,43.208,86.069,46.52,81.543,50.288z"/>
<line fill="#16B8EA" stroke="#000000" stroke-width="0.5" stroke-miterlimit="10" x1="81.543" y1="50.288" x2="81.832" y2="45.03"/>
<path fill="none" stroke="#000000" stroke-width="0.5" stroke-miterlimit="10" d="M82.547,50.751c0,0-1.752-4.666,3.78-6.042
	C86.327,44.709,88.404,49.737,82.547,50.751z"/>
<line fill="#16B8EA" stroke="#000000" stroke-width="0.5" stroke-miterlimit="10" x1="82.547" y1="50.751" x2="85.521" y2="46.359"/>
<path fill="none" stroke="#000000" stroke-width="0.5" stroke-miterlimit="10" d="M82.547,51.609c0,0,2.242-4.462,7.086-1.507
	C89.633,50.102,87.347,55.042,82.547,51.609z"/>
<line fill="#16B8EA" stroke="#000000" stroke-width="0.5" stroke-miterlimit="10" x1="82.547" y1="51.609" x2="87.854" y2="50.672"/>
<path fill="none" stroke="#000000" stroke-width="0.5" stroke-miterlimit="10" d="M82.354,51.977c0,0,5.084-0.246,4.784,5.323
	C87.138,57.299,81.604,57.74,82.354,51.977z"/>
<line fill="#16B8EA" stroke="#000000" stroke-width="0.5" stroke-miterlimit="10" x1="82.354" y1="51.977" x2="85.764" y2="56.056"/>
<path fill="none" stroke="#000000" stroke-width="0.5" stroke-miterlimit="10" d="M81.895,51.977c0,0,2.596,4.276-2.588,6.615
	C79.307,58.592,76.325,54.018,81.895,51.977z"/>
<line fill="#16B8EA" stroke="#000000" stroke-width="0.5" stroke-miterlimit="10" x1="81.895" y1="51.977" x2="79.792" y2="56.826"/>
<path fill="none" stroke="#000000" stroke-width="0.5" stroke-miterlimit="10" d="M80.922,51.479c0,0,0.181,4.967-5.516,4.595
	C75.406,56.074,75.032,50.664,80.922,51.479z"/>
<line fill="#16B8EA" stroke="#000000" stroke-width="0.5" stroke-miterlimit="10" x1="80.922" y1="51.479" x2="76.698" y2="54.751"/>
<path fill="none" stroke="#000000" stroke-width="0.5" stroke-miterlimit="10" d="M80.779,50.571c0,0-3.041,3.986-7.249,0.216
	C73.53,50.787,76.703,46.338,80.779,50.571z"/>
<line fill="none" stroke="#000000" stroke-width="0.5" stroke-miterlimit="10" x1="80.779" y1="50.571" x2="75.387" y2="50.544"/>
<ellipse fill="none" stroke="#000000" stroke-width="0.5" stroke-miterlimit="10" cx="81.542" cy="50.957" rx="1.761" ry="1.653"/>
<path fill="none" stroke="#000000" stroke-width="0.5" stroke-miterlimit="10" d="M99.539,68.416
	c5.528,4.547,7.965,10.6,5.445,13.521s-9.043,1.607-14.571-2.939s-7.966-10.601-5.444-13.524
	C87.489,62.552,94.013,63.868,99.539,68.416z"/>
<path fill="none" stroke="#000000" stroke-width="0.5" stroke-miterlimit="10" d="M86.417,74.744c0,0,4.624-0.084,8.15-9.453"/>
<path fill="none" stroke="#000000" stroke-width="0.5" stroke-miterlimit="10" d="M94.616,74.123c0,0-13.39,15.604,0.217,21.404
	C94.833,95.527,109.22,91.1,94.616,74.123z"/>
<path fill="none" stroke="#000000" stroke-width="0.5" stroke-miterlimit="10" d="M94.977,73.707c0,0,13.466-15.538,21.632-3.431
	C116.608,70.276,114.588,84.875,94.977,73.707z"/>
<path fill="none" stroke="#000000" stroke-width="0.5" stroke-miterlimit="10" d="M94.607,76.154c0,0-11.12,12.957,0.18,17.771
	C94.787,93.926,106.734,90.25,94.607,76.154z"/>
<path fill="none" stroke="#000000" stroke-width="0.5" stroke-miterlimit="10" d="M96.935,73.457c0,0,11.183-12.904,17.962-2.849
	C114.896,70.608,113.217,82.732,96.935,73.457z"/>
<path d="M86.722,59.966c0.305,0.25,0.341,0.693,0.085,0.992c-0.257,0.296-0.71,0.336-1.015,0.086
	c-0.302-0.25-0.339-0.693-0.083-0.989C85.965,59.756,86.42,59.717,86.722,59.966z"/>
<path d="M81.018,66.581c0.305,0.25,0.341,0.692,0.084,0.99c-0.256,0.298-0.709,0.336-1.014,0.086
	c-0.302-0.248-0.339-0.692-0.084-0.988C80.261,66.37,80.715,66.332,81.018,66.581z"/>
<path d="M80.554,67.119c0,0,1.896-0.726,3.499,0.355"/>
<path d="M86.431,60.305c0,0-0.41,1.947,0.953,3.308"/>
<path fill="none" stroke="#000000" stroke-width="0.5" stroke-miterlimit="10" d="M62.163,95.533c0,0-2.05,1.854-6.714,2.472
	c0,0,2.942,11.397-4.465,15.925l16.667,1.029c0,0-7.752-8.567-1.818-17.967L62.163,95.533z"/>
</svg>
