<?xml version="1.0" encoding="utf-8"?>
<!-- Generator: Adobe Illustrator 16.0.0, SVG Export Plug-In . SVG Version: 6.00 Build 0)  -->
<!DOCTYPE svg PUBLIC "-//W3C//DTD SVG 1.1//EN" "http://www.w3.org/Graphics/SVG/1.1/DTD/svg11.dtd">
<svg version="1.1" id="Calque_1" xmlns="http://www.w3.org/2000/svg" xmlns:xlink="http://www.w3.org/1999/xlink" x="0px" y="0px"
	 width="141.73px" height="141.73px" viewBox="0 0 141.73 141.73" enable-background="new 0 0 141.73 141.73" xml:space="preserve">
<ellipse fill="#FFFFFF" stroke="#000000" stroke-width="0.5" stroke-miterlimit="10" cx="106.826" cy="53.982" rx="7.143" ry="7.009"/>
<ellipse fill="#FFFFFF" stroke="#000000" stroke-width="0.5" stroke-miterlimit="10" cx="106.827" cy="53.982" rx="3.003" ry="2.937"/>
<path fill="#FFFFFF" stroke="#000000" stroke-width="0.5" stroke-miterlimit="10" d="M100.351,68.067"/>
<path fill="#FFFFFF" stroke="#000000" stroke-width="0.5" stroke-miterlimit="10" d="M100.017,66.2c0,0,0.675-3.337,7.227-3.604
	c0,0,5.064,0.266,6.146,3.604l7.294,22.56c0,0,0.27,6.01-7.294,6.813l-17.695,10.545v18.424h-5.808v-20.826l18.909-14.018
	l-4.592-18.157L89.886,83.557H74.757v-5.475l12.832-1.336L100.017,66.2z"/>
<path fill="#FFFFFF" stroke="#000000" stroke-width="0.5" stroke-miterlimit="10" d="M119.999,94.145l-7.749,4.662
	c0,0,1.057,19.67,9.745,24.041h6.81c0,0-10.567-10.781-8.277-20.689C120.527,102.158,122.935,99.973,119.999,94.145z"/>
<ellipse fill="#FFFFFF" stroke="#000000" stroke-width="0.5" stroke-miterlimit="10" cx="38.044" cy="53.982" rx="7.143" ry="7.009"/>
<ellipse fill="#FFFFFF" stroke="#000000" stroke-width="0.5" stroke-miterlimit="10" cx="38.044" cy="53.982" rx="3.003" ry="2.937"/>
<path fill="#FFFFFF" stroke="#000000" stroke-width="0.5" stroke-miterlimit="10" d="M44.52,68.066"/>
<path fill="#FFFFFF" stroke="#000000" stroke-width="0.5" stroke-miterlimit="10" d="M44.854,66.199c0,0-0.674-3.337-7.226-3.604
	c0,0-5.065,0.266-6.146,3.604L24.188,88.76c0,0-0.27,6.01,7.293,6.813l17.695,10.545v18.424h5.808v-20.826L36.076,89.697
	l4.592-18.157l14.317,12.016h15.128v-5.475l-12.832-1.336L44.854,66.199z"/>
<path fill="#FFFFFF" stroke="#000000" stroke-width="0.5" stroke-miterlimit="10" d="M24.872,94.145l7.749,4.662
	c0,0-1.057,19.67-9.745,24.041h-6.81c0,0,10.567-10.781,8.277-20.689C24.344,102.158,21.937,99.973,24.872,94.145z"/>
<rect x="63.978" y="61.83" fill="#FFFFFF" stroke="#000000" stroke-width="0.5" stroke-miterlimit="10" width="17.469" height="16.243"/>
<rect x="68.731" y="66.249" fill="#FFFFFF" stroke="#000000" stroke-width="0.5" stroke-miterlimit="10" width="7.964" height="7.405"/>
</svg>
