<?xml version="1.0" encoding="utf-8"?>
<!-- Generator: Adobe Illustrator 16.0.0, SVG Export Plug-In . SVG Version: 6.00 Build 0)  -->
<!DOCTYPE svg PUBLIC "-//W3C//DTD SVG 1.1//EN" "http://www.w3.org/Graphics/SVG/1.1/DTD/svg11.dtd">
<svg version="1.1" id="Calque_1" xmlns="http://www.w3.org/2000/svg" xmlns:xlink="http://www.w3.org/1999/xlink" x="0px" y="0px"
	 width="141.73px" height="141.73px" viewBox="0 0 141.73 141.73" enable-background="new 0 0 141.73 141.73" xml:space="preserve">
<rect y="0" fill="none" width="141.73" height="141.73"/>
<ellipse fill="none" stroke="#000000" stroke-width="0.5" stroke-miterlimit="10" cx="68.595" cy="38.785" rx="6.41" ry="6.073"/>
<path fill="none" stroke="#000000" stroke-width="0.5" stroke-miterlimit="10" d="M61.432,49.502h20.611l17.264,20.787
	c0,0,2.818,2.642,0,5.284c0,0-1.939,1.586-3.701-0.88l-15.5-16.735L79.4,111.687c0,0,0.705,4.051-2.818,3.875
	c0,0-2.291,1.058-2.291-3.875l-1.625-16.03h-8.367l-1.987,15.325c0,0-0.88,3.7-3.699,3.7c0,0-1.762-0.177-1.586-3.7l-0.012-53.023
	c0,0-15.489-8.279-15.842-27.304c0,0-0.176-4.581,2.818-4.581c0,0,2.467,0.176,2.114,3.7C46.106,29.773,47.515,49.502,61.432,49.502
	z"/>
</svg>
