<?xml version="1.0" encoding="utf-8"?>
<!-- Generator: Adobe Illustrator 16.0.0, SVG Export Plug-In . SVG Version: 6.00 Build 0)  -->
<!DOCTYPE svg PUBLIC "-//W3C//DTD SVG 1.1//EN" "http://www.w3.org/Graphics/SVG/1.1/DTD/svg11.dtd">
<svg version="1.1" id="Calque_1" xmlns="http://www.w3.org/2000/svg" xmlns:xlink="http://www.w3.org/1999/xlink" x="0px" y="0px"
	 width="141.73px" height="141.73px" viewBox="0 0 141.73 141.73" enable-background="new 0 0 141.73 141.73" xml:space="preserve">
<path fill="none" stroke="#000000" stroke-miterlimit="10" d="M76.64,52.438c0,0,13.791-19.449,28.065-6.29
	c0,0,15.349,15.968-2.802,32.023L84.307,59l-12.7,9.26c0,0-2.667,3.613-7.414-0.004c0,0-2.316-1.592,2.495-5.816L76.64,52.438z"/>
<path fill="none" stroke="#000000" stroke-miterlimit="10" d="M60.491,75.21c1.334,1.485,1.033,3.933-0.672,5.462l-8.042,7.221
	c-1.706,1.531-4.17,1.566-5.504,0.08l0,0c-1.334-1.484-1.033-3.932,0.672-5.463l8.042-7.219
	C56.693,73.76,59.157,73.724,60.491,75.21L60.491,75.21z"/>
<path fill="none" stroke="#000000" stroke-miterlimit="10" d="M66.119,81.303c1.333,1.486,1.033,3.932-0.672,5.463l-8.042,7.219
	c-1.705,1.531-4.169,1.566-5.503,0.082l0,0c-1.334-1.486-1.033-3.934,0.672-5.463l8.042-7.221
	C62.32,79.853,64.785,79.816,66.119,81.303L66.119,81.303z"/>
<path fill="none" stroke="#000000" stroke-miterlimit="10" d="M72.159,87.24c1.334,1.486,1.032,3.932-0.673,5.463l-8.042,7.219
	c-1.706,1.531-4.169,1.568-5.503,0.082l0,0c-1.334-1.486-1.033-3.932,0.672-5.463l8.042-7.221
	C68.36,85.791,70.824,85.754,72.159,87.24L72.159,87.24z"/>
<path fill="none" stroke="#000000" stroke-miterlimit="10" d="M77.686,93.709c1.334,1.486,1.033,3.932-0.672,5.463l-8.042,7.219
	c-1.706,1.531-4.169,1.566-5.503,0.082l0,0c-1.334-1.486-1.033-3.934,0.672-5.463l8.042-7.221
	C73.887,92.258,76.352,92.223,77.686,93.709L77.686,93.709z"/>
<path fill="none" stroke="#000000" stroke-miterlimit="10" d="M43.501,83.611L54.63,72.993c0,0,7.718-3.374,8.808,4.675
	c0,0,3.369-0.361,6.107,6.875c0,0,4.192,0.379,5.076,6.227c0,0,6.098,1.004,5.969,6.336c0,0,3.047,3.74,6.639,1.383
	c0,0,1.801-1.887,0.158-5.23l-8.179-10.15l0.592-0.176l9.164,9.855c0,0,2.564,3.561,6.215,1.398c0,0,2.014-1.889-0.425-5.025
	l-8.646-9.555L96.55,87.98c0,0,2.341,3.533,5.823,0.809c0,0,3.578-1.68-0.278-5.254l-17.383-22.3L68.18,72.818
	c0,0-5.479,0.346-10.392-3.557l13.559-17.57c0,0-14.105-14.904-30.68-3.521C40.666,48.17,22.301,59.902,43.501,83.611z"/>
</svg>
