<?xml version="1.0" encoding="utf-8"?>
<!-- Generator: Adobe Illustrator 16.0.0, SVG Export Plug-In . SVG Version: 6.00 Build 0)  -->
<!DOCTYPE svg PUBLIC "-//W3C//DTD SVG 1.1//EN" "http://www.w3.org/Graphics/SVG/1.1/DTD/svg11.dtd">
<svg version="1.1" id="Calque_1" xmlns="http://www.w3.org/2000/svg" xmlns:xlink="http://www.w3.org/1999/xlink" x="0px" y="0px"
	 width="141.73px" height="141.73px" viewBox="0 0 141.73 141.73" enable-background="new 0 0 141.73 141.73" xml:space="preserve">
<rect x="0" y="-0.001" fill="none" width="141.73" height="141.731"/>
<path fill="none" stroke="#000000" stroke-width="0.25" stroke-miterlimit="10" d="M37.347,40.913l31.384-10.948l28.467,10.948
	c0,0,4.438,67.634-26.854,68.123C70.344,109.035,39.293,117.307,37.347,40.913z"/>
<path fill="none" stroke="#000000" stroke-width="0.25" stroke-miterlimit="10" d="M40.997,43.661l27.569-9.9l25.007,9.9
	c0,0,3.899,61.158-23.591,61.6C69.982,105.261,42.708,112.738,40.997,43.661z"/>
<g>
	<g id="XMLID_1_">
		<g>
		</g>
		<g>
		</g>
	</g>
</g>
<polygon fill="none" stroke="#000000" stroke-width="0.25" stroke-miterlimit="10" points="62.561,62.113 53.299,62.113 
	53.299,71.78 62.561,71.78 62.561,81.043 72.227,81.043 72.227,71.578 81.476,71.78 81.476,62.113 72.227,61.313 72.227,52.852 
	62.561,52.852 "/>
</svg>
